<mxfile host="app.diagrams.net" modified="2021-12-26T06:53:59.764Z" agent="5.0 (Macintosh; Intel Mac OS X 10_15_7) AppleWebKit/537.36 (KHTML, like Gecko) Chrome/96.0.4664.110 Safari/537.36" etag="M6RkxLBpeL6yizLLV8VI" version="15.9.1" type="github">
  <diagram id="xLFqWi3FB2_A9yUpBGQc" name="Page-1">
    <mxGraphModel dx="1298" dy="834" grid="1" gridSize="10" guides="1" tooltips="1" connect="1" arrows="1" fold="1" page="1" pageScale="1" pageWidth="850" pageHeight="1100" math="0" shadow="0">
      <root>
        <mxCell id="0" />
        <mxCell id="1" parent="0" />
        <mxCell id="aI0L6dxZDJCgJwRQTPGV-1" value="&lt;font style=&quot;font-size: 10px&quot;&gt;&lt;b&gt;AWS CloudFront&lt;/b&gt;&lt;/font&gt;" style="points=[[0,0,0],[0.25,0,0],[0.5,0,0],[0.75,0,0],[1,0,0],[0,1,0],[0.25,1,0],[0.5,1,0],[0.75,1,0],[1,1,0],[0,0.25,0],[0,0.5,0],[0,0.75,0],[1,0.25,0],[1,0.5,0],[1,0.75,0]];outlineConnect=0;fontColor=#232F3E;gradientColor=#945DF2;gradientDirection=north;fillColor=#5A30B5;strokeColor=#ffffff;dashed=0;verticalLabelPosition=bottom;verticalAlign=top;align=center;html=1;fontSize=12;fontStyle=0;aspect=fixed;shape=mxgraph.aws4.resourceIcon;resIcon=mxgraph.aws4.cloudfront;" parent="1" vertex="1">
          <mxGeometry x="280" y="200" width="78" height="78" as="geometry" />
        </mxCell>
        <mxCell id="aI0L6dxZDJCgJwRQTPGV-2" value="AWS Lambda" style="outlineConnect=0;fontColor=#232F3E;gradientColor=none;strokeColor=#ffffff;fillColor=#232F3E;dashed=0;verticalLabelPosition=middle;verticalAlign=bottom;align=center;html=1;whiteSpace=wrap;fontSize=10;fontStyle=1;spacing=3;shape=mxgraph.aws4.productIcon;prIcon=mxgraph.aws4.lambda;" parent="1" vertex="1">
          <mxGeometry x="440" y="200" width="80" height="100" as="geometry" />
        </mxCell>
        <mxCell id="aI0L6dxZDJCgJwRQTPGV-3" value="Amazon S3" style="outlineConnect=0;fontColor=#232F3E;gradientColor=none;strokeColor=#ffffff;fillColor=#232F3E;dashed=0;verticalLabelPosition=middle;verticalAlign=bottom;align=center;html=1;whiteSpace=wrap;fontSize=10;fontStyle=1;spacing=3;shape=mxgraph.aws4.productIcon;prIcon=mxgraph.aws4.s3;" parent="1" vertex="1">
          <mxGeometry x="720" y="200" width="80" height="100" as="geometry" />
        </mxCell>
        <mxCell id="aI0L6dxZDJCgJwRQTPGV-4" value="&lt;font style=&quot;font-size: 10px&quot;&gt;&lt;b&gt;AWS CloudFront&lt;/b&gt;&lt;/font&gt;" style="points=[[0,0,0],[0.25,0,0],[0.5,0,0],[0.75,0,0],[1,0,0],[0,1,0],[0.25,1,0],[0.5,1,0],[0.75,1,0],[1,1,0],[0,0.25,0],[0,0.5,0],[0,0.75,0],[1,0.25,0],[1,0.5,0],[1,0.75,0]];outlineConnect=0;fontColor=#232F3E;gradientColor=#945DF2;gradientDirection=north;fillColor=#5A30B5;strokeColor=#ffffff;dashed=0;verticalLabelPosition=bottom;verticalAlign=top;align=center;html=1;fontSize=12;fontStyle=0;aspect=fixed;shape=mxgraph.aws4.resourceIcon;resIcon=mxgraph.aws4.cloudfront;" parent="1" vertex="1">
          <mxGeometry x="280" y="441" width="78" height="78" as="geometry" />
        </mxCell>
        <mxCell id="aI0L6dxZDJCgJwRQTPGV-5" value="" style="edgeStyle=orthogonalEdgeStyle;html=1;endArrow=block;elbow=vertical;startArrow=none;endFill=1;strokeColor=#545B64;rounded=0;entryX=0;entryY=0.5;entryDx=0;entryDy=0;entryPerimeter=0;" parent="1" target="aI0L6dxZDJCgJwRQTPGV-1" edge="1">
          <mxGeometry width="100" relative="1" as="geometry">
            <mxPoint x="240" y="239" as="sourcePoint" />
            <mxPoint x="260" y="230" as="targetPoint" />
          </mxGeometry>
        </mxCell>
        <mxCell id="aI0L6dxZDJCgJwRQTPGV-6" value="&lt;font style=&quot;font-size: 14px ; line-height: 160%&quot;&gt;&lt;b&gt;Production&lt;br&gt;&lt;/b&gt;https://{name}.ghilbut.com&lt;br&gt;https://{name}.ghilbut.net&lt;br&gt;&lt;/font&gt;" style="text;html=1;align=left;verticalAlign=middle;resizable=0;points=[];autosize=1;strokeColor=none;" parent="1" vertex="1">
          <mxGeometry x="50" y="204" width="180" height="70" as="geometry" />
        </mxCell>
        <mxCell id="aI0L6dxZDJCgJwRQTPGV-7" value="&lt;font style=&quot;font-size: 14px ; line-height: 160%&quot;&gt;&lt;b&gt;Preview&lt;/b&gt;&lt;br&gt;https://{name}.c.ghilbut.com&lt;br&gt;https://{name}.s.ghilbut.com&lt;br&gt;https://{name}.p.ghilbut.com&lt;br&gt;https://{name}.c.ghilbut.net&lt;br&gt;https://{name}.s.ghilbut.net&lt;br&gt;https://{name}.p.ghilbut.net&lt;br&gt;&lt;/font&gt;" style="text;html=1;align=left;verticalAlign=middle;resizable=0;points=[];autosize=1;strokeColor=none;" parent="1" vertex="1">
          <mxGeometry x="50" y="400" width="190" height="160" as="geometry" />
        </mxCell>
        <mxCell id="aI0L6dxZDJCgJwRQTPGV-8" value="" style="edgeStyle=orthogonalEdgeStyle;html=1;endArrow=block;elbow=vertical;startArrow=none;endFill=1;strokeColor=#545B64;rounded=0;entryX=0;entryY=0.5;entryDx=0;entryDy=0;entryPerimeter=0;" parent="1" target="aI0L6dxZDJCgJwRQTPGV-4" edge="1">
          <mxGeometry width="100" relative="1" as="geometry">
            <mxPoint x="240" y="480" as="sourcePoint" />
            <mxPoint x="290" y="330" as="targetPoint" />
          </mxGeometry>
        </mxCell>
        <mxCell id="aI0L6dxZDJCgJwRQTPGV-9" value="" style="edgeStyle=orthogonalEdgeStyle;html=1;endArrow=block;elbow=vertical;startArrow=none;endFill=1;strokeColor=#545B64;rounded=0;" parent="1" source="aI0L6dxZDJCgJwRQTPGV-2" target="aI0L6dxZDJCgJwRQTPGV-3" edge="1">
          <mxGeometry width="100" relative="1" as="geometry">
            <mxPoint x="620" y="192" as="sourcePoint" />
            <mxPoint x="720" y="192" as="targetPoint" />
          </mxGeometry>
        </mxCell>
        <mxCell id="aI0L6dxZDJCgJwRQTPGV-10" value="&lt;font style=&quot;font-size: 14px ; line-height: 160%&quot;&gt;&lt;b&gt;/{Host}/{Path}&lt;/b&gt; or&lt;br&gt;&lt;b&gt;/{Host}/index.html&lt;/b&gt;&lt;br&gt;&lt;/font&gt;" style="text;html=1;align=center;verticalAlign=middle;resizable=0;points=[];autosize=1;strokeColor=none;" parent="1" vertex="1">
          <mxGeometry x="545" y="200" width="140" height="50" as="geometry" />
        </mxCell>
        <mxCell id="aI0L6dxZDJCgJwRQTPGV-11" value="AWS Lambda" style="outlineConnect=0;fontColor=#232F3E;gradientColor=none;strokeColor=#ffffff;fillColor=#232F3E;dashed=0;verticalLabelPosition=middle;verticalAlign=bottom;align=center;html=1;whiteSpace=wrap;fontSize=10;fontStyle=1;spacing=3;shape=mxgraph.aws4.productIcon;prIcon=mxgraph.aws4.lambda;" parent="1" vertex="1">
          <mxGeometry x="440" y="441" width="80" height="100" as="geometry" />
        </mxCell>
        <mxCell id="aI0L6dxZDJCgJwRQTPGV-12" value="Amazon S3" style="outlineConnect=0;fontColor=#232F3E;gradientColor=none;strokeColor=#ffffff;fillColor=#232F3E;dashed=0;verticalLabelPosition=middle;verticalAlign=bottom;align=center;html=1;whiteSpace=wrap;fontSize=10;fontStyle=1;spacing=3;shape=mxgraph.aws4.productIcon;prIcon=mxgraph.aws4.s3;" parent="1" vertex="1">
          <mxGeometry x="720" y="441" width="80" height="100" as="geometry" />
        </mxCell>
        <mxCell id="aI0L6dxZDJCgJwRQTPGV-13" value="" style="edgeStyle=orthogonalEdgeStyle;html=1;endArrow=block;elbow=vertical;startArrow=none;endFill=1;strokeColor=#545B64;rounded=0;" parent="1" source="aI0L6dxZDJCgJwRQTPGV-11" target="aI0L6dxZDJCgJwRQTPGV-12" edge="1">
          <mxGeometry width="100" relative="1" as="geometry">
            <mxPoint x="620" y="433" as="sourcePoint" />
            <mxPoint x="720" y="433" as="targetPoint" />
          </mxGeometry>
        </mxCell>
        <mxCell id="aI0L6dxZDJCgJwRQTPGV-14" value="" style="edgeStyle=orthogonalEdgeStyle;html=1;endArrow=block;elbow=vertical;startArrow=none;endFill=1;strokeColor=#545B64;rounded=0;exitX=1;exitY=0.5;exitDx=0;exitDy=0;exitPerimeter=0;" parent="1" source="aI0L6dxZDJCgJwRQTPGV-1" target="aI0L6dxZDJCgJwRQTPGV-2" edge="1">
          <mxGeometry width="100" relative="1" as="geometry">
            <mxPoint x="250" y="249" as="sourcePoint" />
            <mxPoint x="430" y="239" as="targetPoint" />
          </mxGeometry>
        </mxCell>
        <mxCell id="aI0L6dxZDJCgJwRQTPGV-15" value="" style="edgeStyle=orthogonalEdgeStyle;html=1;endArrow=block;elbow=vertical;startArrow=none;endFill=1;strokeColor=#545B64;rounded=0;" parent="1" source="aI0L6dxZDJCgJwRQTPGV-4" target="aI0L6dxZDJCgJwRQTPGV-11" edge="1">
          <mxGeometry width="100" relative="1" as="geometry">
            <mxPoint x="368" y="210" as="sourcePoint" />
            <mxPoint x="450" y="221" as="targetPoint" />
          </mxGeometry>
        </mxCell>
        <mxCell id="aI0L6dxZDJCgJwRQTPGV-16" value="ghilbut-cdn-for-preview-virgina" style="text;html=1;strokeColor=none;fillColor=none;align=center;verticalAlign=middle;whiteSpace=wrap;rounded=0;" parent="1" vertex="1">
          <mxGeometry x="640" y="541" width="200" height="30" as="geometry" />
        </mxCell>
        <mxCell id="aI0L6dxZDJCgJwRQTPGV-17" value="ghilbut-cdn-for-production-virgina" style="text;html=1;strokeColor=none;fillColor=none;align=center;verticalAlign=middle;whiteSpace=wrap;rounded=0;" parent="1" vertex="1">
          <mxGeometry x="640" y="300" width="200" height="30" as="geometry" />
        </mxCell>
        <mxCell id="aI0L6dxZDJCgJwRQTPGV-18" value="&lt;b&gt;Cache TTL&lt;br&gt;&lt;/b&gt;min&amp;nbsp; &amp;nbsp; &amp;nbsp; = 0&lt;br&gt;default = 3600&lt;br&gt;max&amp;nbsp; &amp;nbsp; &amp;nbsp;= 86400" style="text;html=1;strokeColor=none;fillColor=none;align=left;verticalAlign=middle;whiteSpace=wrap;rounded=0;" parent="1" vertex="1">
          <mxGeometry x="280" y="310" width="92" height="60" as="geometry" />
        </mxCell>
        <mxCell id="aI0L6dxZDJCgJwRQTPGV-19" value="&lt;b&gt;Cache TTL&lt;br&gt;&lt;/b&gt;min&amp;nbsp; &amp;nbsp; &amp;nbsp; = 0&lt;br&gt;default = 0&lt;br&gt;max&amp;nbsp; &amp;nbsp; &amp;nbsp;= 0" style="text;html=1;strokeColor=none;fillColor=none;align=left;verticalAlign=middle;whiteSpace=wrap;rounded=0;" parent="1" vertex="1">
          <mxGeometry x="280" y="550" width="92" height="60" as="geometry" />
        </mxCell>
        <mxCell id="aI0L6dxZDJCgJwRQTPGV-20" value="&lt;font style=&quot;font-size: 14px ; line-height: 160%&quot;&gt;&lt;b&gt;/{Host}/{Path}&lt;/b&gt; or&lt;br&gt;&lt;b&gt;/{Host}/index.html&lt;/b&gt;&lt;br&gt;&lt;/font&gt;" style="text;html=1;align=center;verticalAlign=middle;resizable=0;points=[];autosize=1;strokeColor=none;" parent="1" vertex="1">
          <mxGeometry x="545" y="440" width="140" height="50" as="geometry" />
        </mxCell>
      </root>
    </mxGraphModel>
  </diagram>
</mxfile>
